<svg width="1200" height="630" viewBox="0 0 1200 630" fill="none" xmlns="http://www.w3.org/2000/svg">
  <defs>
    <radialGradient id="bg1" cx="25%" cy="25%" r="50%">
      <stop offset="0%" stop-color="#1a1a2e"/>
      <stop offset="100%" stop-color="transparent"/>
    </radialGradient>
    <radialGradient id="bg2" cx="75%" cy="75%" r="50%">
      <stop offset="0%" stop-color="#16213e"/>
      <stop offset="100%" stop-color="transparent"/>
    </radialGradient>
  </defs>

  <!-- Background -->
  <rect width="1200" height="630" fill="#0a0a0a"/>
  <rect width="1200" height="630" fill="url(#bg1)"/>
  <rect width="1200" height="630" fill="url(#bg2)"/>

  <!-- Logo — Isometric Cube -->
  <defs>
    <linearGradient id="og-r" x1="600" y1="107" x2="643" y2="182" gradientUnits="userSpaceOnUse">
      <stop offset="0%" stop-color="#60A5FA"/>
      <stop offset="100%" stop-color="#2563EB"/>
    </linearGradient>
    <linearGradient id="og-l" x1="600" y1="107" x2="557" y2="182" gradientUnits="userSpaceOnUse">
      <stop offset="0%" stop-color="#2DD4BF"/>
      <stop offset="100%" stop-color="#0D9488"/>
    </linearGradient>
    <linearGradient id="og-b" x1="600" y1="157" x2="600" y2="207" gradientUnits="userSpaceOnUse">
      <stop offset="0%" stop-color="#FBBF24"/>
      <stop offset="100%" stop-color="#D97706"/>
    </linearGradient>
  </defs>
  <polygon points="600,157 600,107 643,132 643,182" fill="url(#og-r)"/>
  <polygon points="600,157 600,107 557,132 557,182" fill="url(#og-l)"/>
  <polygon points="600,157 643,182 600,207 557,182" fill="url(#og-b)"/>

  <!-- Title -->
  <text x="600" y="290" text-anchor="middle" font-family="system-ui, -apple-system, sans-serif" font-size="72" font-weight="700" fill="white" letter-spacing="-0.02em">Data Cube AI</text>

  <!-- Tagline -->
  <text x="600" y="350" text-anchor="middle" font-family="system-ui, -apple-system, sans-serif" font-size="32" fill="#a0a0a0">Daily AI Intelligence in 8 Languages</text>

  <!-- Feature badges -->
  <g transform="translate(270, 400)">
    <rect x="0" y="0" width="130" height="44" rx="8" fill="rgba(96,165,250,0.15)"/>
    <text x="65" y="28" text-anchor="middle" font-family="system-ui, sans-serif" font-size="18" fill="#60A5FA">Tech News</text>
  </g>
  <g transform="translate(420, 400)">
    <rect x="0" y="0" width="130" height="44" rx="8" fill="rgba(251,191,36,0.15)"/>
    <text x="65" y="28" text-anchor="middle" font-family="system-ui, sans-serif" font-size="18" fill="#FBBF24">Investment</text>
  </g>
  <g transform="translate(570, 400)">
    <rect x="0" y="0" width="90" height="44" rx="8" fill="rgba(45,212,191,0.15)"/>
    <text x="45" y="28" text-anchor="middle" font-family="system-ui, sans-serif" font-size="18" fill="#2DD4BF">Tips</text>
  </g>
  <g transform="translate(680, 400)">
    <rect x="0" y="0" width="110" height="44" rx="8" fill="rgba(251,113,133,0.15)"/>
    <text x="55" y="28" text-anchor="middle" font-family="system-ui, sans-serif" font-size="18" fill="#FB7185">Videos</text>
  </g>

  <!-- Language badges -->
  <text x="600" y="530" text-anchor="middle" font-family="system-ui, sans-serif" font-size="16" fill="#555">DE  EN  ZH  FR  ES  PT  JA  KO</text>
  <!-- Accent line -->
  <line x1="460" y1="560" x2="740" y2="560" stroke="rgba(255,255,255,0.08)" stroke-width="1"/>
</svg>
