<svg width="1200" height="630" viewBox="0 0 1200 630" fill="none" xmlns="http://www.w3.org/2000/svg">
  <defs>
    <radialGradient id="bg1" cx="25%" cy="25%" r="50%">
      <stop offset="0%" stop-color="#1a1a2e"/>
      <stop offset="100%" stop-color="transparent"/>
    </radialGradient>
    <radialGradient id="bg2" cx="75%" cy="75%" r="50%">
      <stop offset="0%" stop-color="#16213e"/>
      <stop offset="100%" stop-color="transparent"/>
    </radialGradient>
  </defs>

  <!-- Background -->
  <rect width="1200" height="630" fill="#0a0a0a"/>
  <rect width="1200" height="630" fill="url(#bg1)"/>
  <rect width="1200" height="630" fill="url(#bg2)"/>

  <!-- Logo — Isometric Cube -->
  <defs>
    <linearGradient id="og-r" x1="600" y1="107" x2="643" y2="182" gradientUnits="userSpaceOnUse">
      <stop offset="0%" stop-color="#60A5FA"/>
      <stop offset="100%" stop-color="#2563EB"/>
    </linearGradient>
    <linearGradient id="og-l" x1="600" y1="107" x2="557" y2="182" gradientUnits="userSpaceOnUse">
      <stop offset="0%" stop-color="#2DD4BF"/>
      <stop offset="100%" stop-color="#0D9488"/>
    </linearGradient>
    <linearGradient id="og-b" x1="600" y1="157" x2="600" y2="207" gradientUnits="userSpaceOnUse">
      <stop offset="0%" stop-color="#FBBF24"/>
      <stop offset="100%" stop-color="#D97706"/>
    </linearGradient>
  </defs>
  <polygon points="600,157 600,107 643,132 643,182" fill="url(#og-r)"/>
  <polygon points="600,157 600,107 557,132 557,182" fill="url(#og-l)"/>
  <polygon points="600,157 643,182 600,207 557,182" fill="url(#og-b)"/>

  <!-- Title -->
  <text x="600" y="290" text-anchor="middle" font-family="system-ui, -apple-system, sans-serif" font-size="72" font-weight="700" fill="white" letter-spacing="-0.02em">Data Cube AI</text>

  <!-- Tagline -->
  <text x="600" y="350" text-anchor="middle" font-family="system-ui, -apple-system, sans-serif" font-size="32" fill="#a0a0a0">Daily AI Intelligence</text>

  <!-- Feature badges -->
  <g transform="translate(290, 400)">
    <rect x="0" y="0" width="120" height="44" rx="8" fill="rgba(255,255,255,0.1)"/>
    <text x="60" y="28" text-anchor="middle" font-family="system-ui, sans-serif" font-size="18" fill="white">Tech News</text>
  </g>
  <g transform="translate(430, 400)">
    <rect x="0" y="0" width="120" height="44" rx="8" fill="rgba(255,255,255,0.1)"/>
    <text x="60" y="28" text-anchor="middle" font-family="system-ui, sans-serif" font-size="18" fill="white">Investment</text>
  </g>
  <g transform="translate(570, 400)">
    <rect x="0" y="0" width="80" height="44" rx="8" fill="rgba(255,255,255,0.1)"/>
    <text x="40" y="28" text-anchor="middle" font-family="system-ui, sans-serif" font-size="18" fill="white">Tips</text>
  </g>
  <g transform="translate(670, 400)">
    <rect x="0" y="0" width="100" height="44" rx="8" fill="rgba(255,255,255,0.1)"/>
    <text x="50" y="28" text-anchor="middle" font-family="system-ui, sans-serif" font-size="18" fill="white">Videos</text>
  </g>

  <!-- Language badges -->
  <text x="520" y="560" text-anchor="middle" font-family="system-ui, sans-serif" font-size="18" fill="#666">🇩🇪 Deutsch</text>
  <text x="600" y="560" text-anchor="middle" font-family="system-ui, sans-serif" font-size="18" fill="#666">•</text>
  <text x="680" y="560" text-anchor="middle" font-family="system-ui, sans-serif" font-size="18" fill="#666">🇬🇧 English</text>
</svg>
